<?xml version="1.0" encoding="UTF-8"?>
<svg width="194px" height="157px" viewBox="0 0 194 157" version="1.1" xmlns="http://www.w3.org/2000/svg" xmlns:xlink="http://www.w3.org/1999/xlink">
    <!-- Generator: Sketch 41.2 (35397) - http://www.bohemiancoding.com/sketch -->
    <title>Slice 1</title>
    <desc>Created with Sketch.</desc>
    <defs>
        <filter x="-50%" y="-50%" width="200%" height="200%" filterUnits="objectBoundingBox" id="filter-1">
            <feOffset dx="0" dy="2" in="SourceAlpha" result="shadowOffsetOuter1"></feOffset>
            <feGaussianBlur stdDeviation="2" in="shadowOffsetOuter1" result="shadowBlurOuter1"></feGaussianBlur>
            <feColorMatrix values="0 0 0 0 0   0 0 0 0 0   0 0 0 0 0  0 0 0 0.5 0" type="matrix" in="shadowBlurOuter1" result="shadowMatrixOuter1"></feColorMatrix>
            <feMerge>
                <feMergeNode in="shadowMatrixOuter1"></feMergeNode>
                <feMergeNode in="SourceGraphic"></feMergeNode>
            </feMerge>
        </filter>
        <filter x="-50%" y="-50%" width="200%" height="200%" filterUnits="objectBoundingBox" id="filter-2">
            <feOffset dx="0" dy="2" in="SourceAlpha" result="shadowOffsetOuter1"></feOffset>
            <feGaussianBlur stdDeviation="2" in="shadowOffsetOuter1" result="shadowBlurOuter1"></feGaussianBlur>
            <feColorMatrix values="0 0 0 0 0   0 0 0 0 0   0 0 0 0 0  0 0 0 0.5 0" type="matrix" in="shadowBlurOuter1" result="shadowMatrixOuter1"></feColorMatrix>
            <feMerge>
                <feMergeNode in="shadowMatrixOuter1"></feMergeNode>
                <feMergeNode in="SourceGraphic"></feMergeNode>
            </feMerge>
        </filter>
        <filter x="-50%" y="-50%" width="200%" height="200%" filterUnits="objectBoundingBox" id="filter-3">
            <feOffset dx="0" dy="2" in="SourceAlpha" result="shadowOffsetOuter1"></feOffset>
            <feGaussianBlur stdDeviation="2" in="shadowOffsetOuter1" result="shadowBlurOuter1"></feGaussianBlur>
            <feColorMatrix values="0 0 0 0 0   0 0 0 0 0   0 0 0 0 0  0 0 0 0.5 0" type="matrix" in="shadowBlurOuter1" result="shadowMatrixOuter1"></feColorMatrix>
            <feMerge>
                <feMergeNode in="shadowMatrixOuter1"></feMergeNode>
                <feMergeNode in="SourceGraphic"></feMergeNode>
            </feMerge>
        </filter>
    </defs>
    <g id="Page-1" stroke="none" stroke-width="1" fill="none" fill-rule="evenodd">
        <g id="MOVIE" filter="url(#filter-1)" transform="translate(40.000000, 35.000000)" fill="#FFFFFF">
            <g id="Canvas">
                <g id="MOVIE">
                    <g id="path0_fill-link" transform="translate(0.040000, 0.970000)">
                        <polygon id="path0_fill" points="0 35.8674 0 0.356692 7.33911 0.356692 12.605 27.5446 17.8709 0.356692 25.21 0.356692 25.21 35.8674 19.9027 35.8674 19.9027 7.84723 14.5953 35.8674 10.6148 35.8674 5.30738 7.84723 5.30738 35.8674"></polygon>
                    </g>
                    <g id="path1_fill-link" transform="translate(34.040000, 0.970000)">
                        <path d="M10.3415,36.2241 C8.4756,36.2241 6.8723,35.9533 5.5317,35.4116 C4.2048,34.87 3.1475,34.0773 2.3597,33.0337 C1.5719,31.99 0.9983,30.768 0.6389,29.3677 C0.2796,27.9541 0.0999,26.316 0.0999,24.4532 L0.0999,11.5727 C0.0999,9.70996 0.2796,8.08503 0.6389,6.69789 C0.9983,5.31075 1.5719,4.10857 2.3597,3.09133 C3.1475,2.06089 4.2048,1.28806 5.5317,0.772833 C6.8723,0.257611 8.4756,0 10.3415,0 C13.9627,0 16.5749,0.990812 18.1782,2.97244 C19.7814,4.95406 20.5831,7.82081 20.5831,11.5727 L20.5831,24.4532 C20.5831,26.2895 20.3965,27.9145 20.0233,29.328 C19.6639,30.7284 19.0904,31.957 18.3025,33.0139 C17.5147,34.0575 16.4505,34.8568 15.1098,35.4116 C13.783,35.9533 12.1935,36.2241 10.3415,36.2241 Z M6.4646,30.4576 C7.1833,31.5276 8.4756,32.0627 10.3415,32.0627 C12.2074,32.0627 13.4927,31.5276 14.1976,30.4576 C14.9163,29.3875 15.2757,27.8088 15.2757,25.7215 L15.2757,10.3044 C15.2757,8.24356 14.9232,6.7045 14.2184,5.68726 C13.5135,4.67003 12.2212,4.16141 10.3415,4.16141 C8.4618,4.16141 7.1695,4.67003 6.4646,5.68726 C5.7597,6.7045 5.4073,8.24356 5.4073,10.3044 L5.4073,25.7215 C5.4073,27.8088 5.7597,29.3875 6.4646,30.4576 Z" id="path1_fill"></path>
                    </g>
                    <g id="path2_fill-link" transform="translate(61.040000, 0.970000)">
                        <polygon id="path2_fill" points="8.0291 35.8674 0.068 0.356692 5.3754 0.356692 9.2937 19.3803 10.662 28.258 12.0718 19.3803 15.9902 0.356692 21.2975 0.356692 13.3365 35.8674"></polygon>
                    </g>
                    <g id="path3_fill-link" transform="translate(89.040000, 0.970000)">
                        <polygon id="path3_fill" points="0.6947 35.8674 0.6947 0.356692 6.0021 0.356692 6.0021 35.8674"></polygon>
                    </g>
                    <g id="path4_fill-link" transform="translate(104.040000, 0.970000)">
                        <polygon id="path4_fill" points="0.929 35.8674 0.929 0.356692 15.524 0.356692 15.524 4.16141 6.236 4.16141 6.236 15.5756 12.87 15.5756 12.87 19.3803 6.236 19.3803 6.236 32.0627 15.524 32.0627 15.524 35.8674"></polygon>
                    </g>
                </g>
            </g>
        </g>
        <g id="BOX" filter="url(#filter-2)" transform="translate(40.000000, 86.000000)" fill="#FFFFFF">
            <g id="Canvas">
                <g id="BOX">
                    <g id="path0_fill-link" transform="translate(0.680000, 0.910000)">
                        <path d="M7.54643,31.27 L8.25131,31.27 C9.23263,31.27 10.0274,31.1643 10.6355,30.953 C11.2436,30.7284 11.7066,30.3519 12.0245,29.8234 C12.3424,29.295 12.5497,28.7005 12.6465,28.04 C12.7571,27.3662 12.8123,26.4679 12.8123,25.345 C12.8123,23.4822 12.4668,22.0357 11.7757,21.0052 C11.0985,19.9748 9.93751,19.4595 8.29278,19.4595 L7.54643,19.4595 L7.54643,31.27 Z M7.50496,14.7235 L8.79034,14.7235 C9.48141,14.7235 10.0619,14.598 10.5318,14.347 C11.0018,14.096 11.3542,13.7327 11.5892,13.2571 C11.8379,12.7683 12.0107,12.2464 12.1075,11.6916 C12.2042,11.1367 12.2526,10.4828 12.2526,9.72977 C12.2526,9.13529 12.2042,8.61346 12.1075,8.16429 C12.0245,7.71512 11.9278,7.34522 11.8172,7.05458 C11.7066,6.75073 11.5201,6.49973 11.2574,6.30156 C10.9948,6.09019 10.7599,5.93827 10.5526,5.84579 C10.3591,5.7401 10.055,5.66744 9.64035,5.62781 C9.23954,5.57497 8.91474,5.54855 8.66595,5.54855 C8.41717,5.53534 8.03017,5.52873 7.50496,5.52873 L7.50496,14.7235 Z M0,36.3628 L0,0.693568 L7.69155,0.693568 C9.07368,0.693568 10.29,0.766227 11.3404,0.911547 C12.4046,1.04365 13.4412,1.31448 14.4502,1.72401 C15.4729,2.12034 16.3091,2.65538 16.9587,3.32913 C17.6222,4.00288 18.1474,4.89461 18.5344,6.00432 C18.9352,7.10082 19.1356,8.40209 19.1356,9.90812 C19.1356,11.7708 18.6726,13.2372 17.7465,14.3073 C16.8343,15.3774 15.4107,16.2229 13.4758,16.8438 C17.9124,17.8742 20.1307,20.8731 20.1307,25.8404 C20.1307,29.4205 19.2323,32.0693 17.4356,33.7867 C15.6388,35.5041 12.8953,36.3628 9.20498,36.3628 L0,36.3628 Z" id="path0_fill"></path>
                    </g>
                    <g id="path1_fill-link" transform="translate(48.680000, 0.910000)">
                        <path d="M0.633,24.6316 L0.633,12.6428 C0.633,4.21425 4.268,0 11.538,0 C18.8218,0 22.4637,4.21425 22.4637,12.6428 L22.4637,24.4532 C22.4637,25.88 22.3532,27.2011 22.132,28.4165 C21.9109,29.6187 21.5308,30.7614 20.9918,31.8447 C20.4666,32.928 19.7893,33.8527 18.96,34.619 C18.1446,35.372 17.108,35.9665 15.8502,36.4024 C14.5925,36.8384 13.1551,37.0564 11.538,37.0564 C9.9347,37.0564 8.5042,36.8384 7.2465,36.4024 C5.9888,35.9797 4.9522,35.405 4.1367,34.6784 C3.3212,33.9386 2.644,33.0403 2.105,31.9834 C1.5798,30.9133 1.1997,29.7772 0.9647,28.575 C0.7436,27.3728 0.633,26.0584 0.633,24.6316 Z M14.9173,26.2565 L14.9173,10.8395 C14.9173,7.3254 13.7909,5.56836 11.538,5.56836 C10.8608,5.56836 10.2872,5.7335 9.8172,6.06377 C9.3473,6.38083 9.0018,6.82339 8.7807,7.39146 C8.5595,7.94631 8.4006,8.50117 8.3038,9.05602 C8.2209,9.59767 8.1794,10.1922 8.1794,10.8395 L8.1794,26.2565 C8.1794,29.7574 9.299,31.5078 11.538,31.5078 C13.7909,31.5078 14.9173,29.7574 14.9173,26.2565 Z" id="path1_fill"></path>
                    </g>
                    <g id="path2_fill-link" transform="translate(97.680000, 0.910000)">
                        <polygon id="path2_fill" points="0.7636 36.3628 6.797 17.9139 0.7221 0.693568 7.895 0.693568 11.399 11.3547 15.172 0.693568 22.18 0.693568 16.147 17.795 22.097 36.3628 14.986 36.3628 11.42 24.5721 7.895 36.3628"></polygon>
                    </g>
                </g>
            </g>
        </g>
        <g id="Rectangle-3-(Stroke)" filter="url(#filter-3)" transform="translate(4.000000, 2.000000)" fill="#FFFFFF">
            <path d="M179.644,5.79767 L6.77557,5.79767 L6.77557,143.202 L179.644,143.202 L179.644,5.79767 Z M6.77557,0 L0.71,0 L0.71,5.79767 L0.71,143.202 L0.71,149 L6.77557,149 L179.644,149 L185.71,149 L185.71,143.202 L185.71,5.79767 L185.71,0 L179.644,0 L6.77557,0 Z" id="path0_fill"></path>
        </g>
    </g>
</svg>