<?xml version="1.0" encoding="UTF-8"?>
<svg width="82px" height="82px" viewBox="0 0 82 82" version="1.1" xmlns="http://www.w3.org/2000/svg" xmlns:xlink="http://www.w3.org/1999/xlink">
    <!-- Generator: Sketch 41.2 (35397) - http://www.bohemiancoding.com/sketch -->
    <title>Untitled 2</title>
    <desc>Created with Sketch.</desc>
    <defs></defs>
    <g id="Page-1" stroke="none" stroke-width="1" fill="none" fill-rule="evenodd">
        <g id="search" fill="#FFFFFF">
            <path d="M60,55.3 C70.7,42.3 70,22.7 57.8,10.5 C44.8,-2.5 23.5,-2.5 10.5,10.5 C-2.5,23.5 -2.5,44.8 10.5,57.8 C17,64.3 25.5,67.5 34.1,67.5 C41.6,67.5 49.1,65 55.3,60 L75.5,80.2 C76.2,80.9 77,81.2 77.8,81.2 C78.6,81.2 79.5,80.9 80.1,80.2 C81.4,78.9 81.4,76.9 80.1,75.5 L60,55.3 Z M15.2,53 C4.8,42.6 4.8,25.6 15.2,15.2 C20.4,10 27.2,7.3 34.1,7.3 C41,7.3 47.8,10 53,15.2 C63.4,25.6 63.4,42.6 53,53 C42.6,63.5 25.6,63.5 15.2,53 Z" id="Shape"></path>
        </g>
    </g>
</svg>